<?xml version="1.0" encoding="utf-8"?>
<!-- Generator: Adobe Illustrator 21.0.0, SVG Export Plug-In . SVG Version: 6.00 Build 0)  -->
<svg version="1.1" id="Layer_1" xmlns="http://www.w3.org/2000/svg" xmlns:xlink="http://www.w3.org/1999/xlink" x="0px" y="0px"
	 viewBox="0 0 720 720" style="enable-background:new 0 0 720 720;" xml:space="preserve">
<style type="text/css">
	.st0{fill:#5C96D0;}
	.st1{fill:#5B96D0;}
	.st2{font-family:'AgencyFB-Bold';}
	.st3{font-size:37px;}
	.st4{fill:#E96126;}
	.st5{fill:#03233E;}
	.st6{fill:#939598;}
	.st7{fill:#C7A489;}
	.st8{fill:#8E502A;}
	.st9{fill:#262262;}
</style>

<g>
	<g>
		<g>
			<path class="st4" d="M145.7,306.4c0,0-16-42.5,8.5-65c0,0,18.5-20,66,9.5c0,0,10.2-12,10.3-12c0-0.1-7.6-4.8-8-5.1
				c-6.6-3.7-13.5-6.8-20.8-9.1c-8.8-2.7-18.1-4.1-27.3-3.4c-10.2,0.8-20.8,3.7-28.1,11.1c-3.7,3.7-6.8,7.9-9.4,12.4
				c-8.7,15-10.4,32.8-7.4,49.7c1.2,6.4,3,12.7,5.2,18.8L145.7,306.4z"/>
			<path class="st4" d="M273.7,288.4l-1.5,15.5c-4.1,0.2-8.1,0.5-12.2,0.9c-9.8,0.8-19.7,1.9-29.5,3.1c-12.1,1.6-24.3,3.5-36.2,6.2
				c-7.9,1.7-15.9,3.7-23.5,6.5c-8.8,3.2-17.2,7.5-25.5,12c-8.1,4.4-16,8.8-23,14.8c-0.4,0.4-0.8,0.7-1.3,1.1
				c-10.3,9.1-18.4,20.5-22.7,33.6c-4.1,12.5-1.4,23.8,7.6,33.3c9.7,10.3,23.4,16.1,36.8,19.6c9.5,2.5,19.7,4.1,29.4,5.8
				c5.1,0.9,10.1,1.7,15.2,2.2c2.5,0.3,5.1,0.5,7.7,0.7c1.6,0.1,4.8-0.4,6.3,0.3c0.7,0.4,1.5,2.2,2,2.9c1.5,2.2,3,4.4,4.5,6.5
				c-0.3-0.4-5.1,0-5.8,0c-2.1,0-4.1,0-6.2-0.1c-4-0.1-8-0.3-12-0.5c-23.1-1.3-47.8-3.1-68.6-14.6c-3.9-2.2-7.6-4.7-11-7.6
				c-16.4-14-27.7-36-20.8-57.7c3-9.3,8.6-17.6,15.3-24.6c0,0,49.5-59,177-60.5"/>
			<path class="st4" d="M147.7,342.9l12.5-4.5c7.4,14.7,15.2,29.3,23.3,43.5c5.2,9.2,10.6,18.3,16.6,27.1
				c8.5,12.5,19.2,24,29.4,35.2c8.8,9.7,18.2,18.9,28.2,27.3c18.7,15.8,44.9,34.6,71,29.1c1-0.2,2.1-0.5,3.1-0.8c0,0,26-5,32.5-11.5
				c0,0-19.5,35-70.5,22c0,0-50-14-98.5-85C195.2,425.4,149.2,361.9,147.7,342.9z"/>
			<path class="st4" d="M239.4,441.9l2,6c0,0,21.3-3.5,23.1-5.5C266.4,440.4,242.9,444.2,239.4,441.9z"/>
			<circle class="st4" cx="247.3" cy="256.8" r="16"/>
			<circle class="st4" cx="297" cy="296.4" r="16"/>
		</g>
	</g>
	<g>
		<path class="st5" d="M264.5,353.7h-17.7v17.2h-11v-43.2h30.5v8h-19.5v9.9h17.7V353.7z"/>
		<path class="st5" d="M311.7,350.2c0,4.2-0.8,7.9-2.5,11.2c-1.6,3.2-4,5.7-7,7.5c-3,1.8-6.5,2.6-10.4,2.6s-7.3-0.8-10.3-2.5
			c-3-1.7-5.3-4.1-7-7.3c-1.7-3.1-2.6-6.8-2.6-10.8v-2.4c0-4.2,0.8-8,2.5-11.2c1.6-3.2,4-5.7,7-7.5c3.1-1.8,6.5-2.6,10.4-2.6
			c3.9,0,7.3,0.9,10.3,2.6s5.4,4.2,7.1,7.4c1.7,3.2,2.5,6.9,2.6,11V350.2z M300.5,348.4c0-4.3-0.8-7.5-2.3-9.8
			c-1.5-2.2-3.7-3.3-6.5-3.3c-5.5,0-8.4,3.9-8.7,11.7l0,3.2c0,4.2,0.7,7.5,2.2,9.8c1.5,2.3,3.7,3.4,6.6,3.4c2.8,0,4.9-1.1,6.4-3.4
			c1.5-2.2,2.3-5.4,2.3-9.6V348.4z"/>
		<path class="st5" d="M358.2,350.2c0,4.2-0.8,7.9-2.5,11.2c-1.6,3.2-4,5.7-7,7.5c-3,1.8-6.5,2.6-10.4,2.6s-7.3-0.8-10.3-2.5
			c-3-1.7-5.3-4.1-7-7.3c-1.7-3.1-2.6-6.8-2.6-10.8v-2.4c0-4.2,0.8-8,2.5-11.2c1.6-3.2,4-5.7,7-7.5c3.1-1.8,6.5-2.6,10.4-2.6
			c3.9,0,7.3,0.9,10.3,2.6s5.4,4.2,7.1,7.4c1.7,3.2,2.5,6.9,2.6,11V350.2z M347,348.4c0-4.3-0.8-7.5-2.3-9.8
			c-1.5-2.2-3.7-3.3-6.5-3.3c-5.5,0-8.4,3.9-8.7,11.7l0,3.2c0,4.2,0.7,7.5,2.2,9.8c1.5,2.3,3.7,3.4,6.6,3.4c2.8,0,4.9-1.1,6.4-3.4
			c1.5-2.2,2.3-5.4,2.3-9.6V348.4z"/>
		<path class="st5" d="M399.3,335.7h-13.7v35.1h-11v-35.1h-13.4v-8h38.1V335.7z"/>
		<path class="st5" d="M417.1,356.2v14.7h-11v-43.2h18.2c3.5,0,6.6,0.6,9.3,1.8c2.7,1.2,4.8,2.9,6.2,5.2s2.2,4.8,2.2,7.6
			c0,4.2-1.6,7.6-4.8,10.1c-3.2,2.5-7.6,3.8-13.1,3.8H417.1z M417.1,348.2h7.2c2.1,0,3.8-0.5,4.9-1.5c1.1-1,1.7-2.4,1.7-4.3
			c0-2-0.6-3.6-1.7-4.8s-2.7-1.8-4.7-1.8h-7.3V348.2z"/>
		<path class="st5" d="M467.1,355.6h-5.9v15.3h-11v-43.2h17.9c5.4,0,9.6,1.1,12.7,3.4s4.6,5.5,4.6,9.6c0,3-0.6,5.5-1.9,7.5
			c-1.3,2-3.3,3.6-6,4.8l9.5,17.4v0.4h-11.8L467.1,355.6z M461.1,347.6h7c2.1,0,3.7-0.5,4.7-1.6c1.1-1,1.6-2.5,1.6-4.4
			s-0.5-3.3-1.6-4.4s-2.6-1.6-4.7-1.6h-7V347.6z"/>
		<path class="st5" d="M505.9,370.9h-11v-43.2h11V370.9z"/>
		<path class="st5" d="M553.9,370.9H543L526.8,344v26.9h-11v-43.2h11l16.1,26.9v-26.9h11V370.9z"/>
		<path class="st5" d="M598,335.7h-13.7v35.1h-11v-35.1h-13.4v-8H598V335.7z"/>
		<path class="st5" d="M627.9,359.4c0-1.5-0.6-2.7-1.7-3.6c-1.1-0.9-3.1-1.7-6-2.6c-2.9-0.9-5.2-1.8-7-2.6
			c-5.9-2.7-8.9-6.5-8.9-11.3c0-2.4,0.7-4.5,2.2-6.3c1.5-1.8,3.6-3.3,6.2-4.3c2.7-1,5.7-1.5,9.1-1.5c3.3,0,6.2,0.6,8.8,1.7
			s4.6,2.7,6.1,4.7c1.4,2,2.2,4.4,2.2,7h-11c0-1.8-0.6-3.1-1.7-4.1c-1.1-1-2.7-1.5-4.6-1.5c-2,0-3.5,0.4-4.6,1.2
			c-1.1,0.8-1.7,1.9-1.7,3.1c0,1.1,0.6,2.1,1.9,3c1.3,0.9,3.5,1.8,6.6,2.8c3.2,1,5.7,2,7.8,3.1c4.9,2.7,7.4,6.4,7.4,11.1
			c0,3.8-1.5,6.7-4.5,8.9s-7.1,3.2-12.4,3.2c-3.7,0-7-0.6-10-1.9c-3-1.3-5.2-3-6.8-5.2c-1.5-2.2-2.3-4.7-2.3-7.5h11
			c0,2.3,0.6,4,1.9,5.1c1.3,1.1,3.3,1.6,6.2,1.6c1.8,0,3.3-0.4,4.3-1.1C627.3,361.8,627.9,360.7,627.9,359.4z"/>
		<path class="st5" d="M271.6,391h-13.7v35.1h-11V391h-13.4v-8h38.1V391z"/>
		<path class="st5" d="M306.7,407.8h-17.3v10.3h20.4v8h-31.4v-43.2h31.5v8h-20.5v9.1h17.3V407.8z"/>
		<path class="st5" d="M353.5,411.5c-0.1,3-1,5.7-2.6,8c-1.6,2.3-3.8,4.1-6.6,5.4s-6.1,1.9-9.7,1.9c-6,0-10.7-1.8-14.2-5.5
			c-3.4-3.7-5.2-8.9-5.2-15.7v-2.1c0-4.2,0.8-7.9,2.3-11.1c1.6-3.2,3.8-5.6,6.7-7.4c2.9-1.7,6.3-2.6,10.1-2.6c5.5,0,10,1.4,13.3,4.1
			c3.4,2.8,5.3,6.6,5.7,11.4h-11c-0.1-2.6-0.8-4.5-2.1-5.7c-1.3-1.1-3.3-1.7-6-1.7c-2.7,0-4.7,1-6,2.9c-1.3,1.9-1.9,5-2,9.3v3.1
			c0,4.6,0.6,7.9,1.8,9.9c1.2,2,3.3,3,6.3,3c2.5,0,4.5-0.6,5.8-1.7c1.3-1.1,2-2.9,2.1-5.4H353.5z"/>
		<path class="st5" d="M399,426.1h-10.9v-18h-16.2v18h-11v-43.2h11v17.1h16.2v-17.1H399V426.1z"/>
	</g>
	<g>
		<g>
			<g>
				<path class="st5" d="M322.7,243.9c0.1,0.1,0.1,0.2,0.2,0.2c0.7,1.4,1.3,2.9,1.5,4.6c0,0.4,0,0.8,0,1.1c-0.3,1.1-0.6,2.3-1.2,3.4
					c-0.1,0-0.1,0.1-0.1,0.2c-0.1,0.1-0.1,0.2-0.2,0.3l0,0c-0.1,0.1-0.1,0.1-0.2,0.2c0,0.1-0.1,0.1-0.1,0.2
					c-0.1,0.1-0.1,0.2-0.2,0.3c-0.3,0.3-0.6,0.6-0.9,0.9c-0.1,0.1-0.1,0.1-0.2,0.2c-0.1,0.1-0.2,0.2-0.3,0.2
					c-0.1,0.1-0.2,0.1-0.3,0.2c-0.2,0.1-0.3,0.2-0.5,0.3c-0.1,0.1-0.2,0.1-0.2,0.2c-0.1,0.1-0.3,0.2-0.4,0.3
					c-2.4,1.1-4.9,1.4-7.5,1.1c-0.1,0-0.2,0-0.4,0c-0.8-0.5-1.7-0.6-2.5-1c-0.1-0.1-0.3-0.2-0.4-0.2c-0.3-0.4-0.7-0.5-1.1-0.7
					c-0.1-0.1-0.2-0.1-0.2-0.2c-0.1-0.1-0.1-0.1-0.2-0.2l0,0c-0.1-0.3-0.3-0.4-0.6-0.5c-0.2-0.3-0.5-0.6-0.7-0.9
					c-0.1-0.1-0.1-0.2-0.2-0.2l0,0c-0.1-0.1-0.1-0.2-0.2-0.2l0,0c-0.1-0.1-0.1-0.2-0.2-0.3c0-0.1,0-0.1,0-0.2
					c-0.1-0.1-0.1-0.2-0.2-0.2l0,0c-0.6-1.5-1-3-1-4.6c0.3-1.5,0.7-2.9,1.6-4.2c0.4-0.4,0.8-0.9,1.2-1.3c0.2-0.2,0.5-0.4,0.7-0.6
					c0.1-0.1,0.2-0.1,0.3-0.2c0.1,0,0.1,0,0.2-0.1c0.1-0.1,0.1-0.1,0.2-0.2l0,0c0.1-0.1,0.2-0.1,0.3-0.2c0.1-0.1,0.3-0.2,0.4-0.2
					c0.1-0.1,0.2-0.1,0.3-0.2c0.1,0,0.1,0,0.2,0c0.2,0,0.3,0,0.4-0.2c0.2-0.1,0.5-0.2,0.7-0.3c0.1,0,0.2-0.1,0.3-0.1
					c0.1,0,0.3,0,0.4-0.1c0.8-0.1,1.7-0.3,2.5-0.3c2.4-0.1,4.6,0.7,6.7,1.8l0,0c0.1,0.3,0.4,0.4,0.6,0.5c0.1,0.1,0.2,0.1,0.2,0.2
					c0.1,0.1,0.1,0.1,0.2,0.2l0,0c0.4,0.4,0.7,0.8,1.1,1.2l0,0C322.5,243.7,322.6,243.8,322.7,243.9z"/>
				<path class="st5" d="M317.9,230.3c-1,3.3-3.3,5.1-6.6,5.7c-0.1,0-0.2,0.1-0.3,0.1c0,0,0,0,0,0c-1.5,0.1-3-0.3-4.4-0.8
					c-0.4-0.3-0.9-0.6-1.3-0.9c-1.2-1.3-1.8-2.8-1.9-4.6c0.1-1.7,1.1-2.9,2-4.2c0.7-0.5,1.4-1,2.1-1.5c1-0.4,2.1-0.7,3.2-0.9
					c2,0,3.7,0.5,5.4,1.6c0.3,0.3,0.6,0.6,0.9,0.9C317.8,227.2,318.1,228.7,317.9,230.3z"/>
				<path class="st5" d="M284.6,210.6L284.6,210.6l0-0.2c1-2.1,2.6-3.3,4.9-3.8c0.6,0,1.2,0.1,1.7,0.1c1.1,0.5,2.1,1.1,2.7,2.1l0,0
					c0.1,0.1,0.1,0.2,0.2,0.3c0,0.1,0.1,0.3,0.1,0.4c0,0.2,0,0.3,0.1,0.5c0,0.5,0,0.9,0,1.4c0,0.1,0,0.3-0.1,0.4
					c-0.2,0.1-0.2,0.3-0.2,0.5c-0.1,0.2-0.2,0.4-0.3,0.6c-1.9,2.5-4.3,3.3-7.3,2.1c-0.4-0.4-0.9-0.8-1.3-1.2
					c-0.1-0.2-0.2-0.3-0.3-0.5c0-0.1-0.1-0.2-0.1-0.3c0-0.1,0-0.3-0.1-0.4c0-0.2,0-0.3-0.1-0.5c0-0.4,0-0.8,0-1.1
					C284.5,210.9,284.5,210.8,284.6,210.6z"/>
				<path class="st5" d="M299.3,234.2c1.1,2.4,2,4.8,2.1,7.4c0.1,2.2-0.5,4.2-1,6.2c-0.6,1.4-1.4,2.7-2.2,4
					c-0.3,0.2-0.6,0.5-0.7,0.9c-0.1,0.1-0.3,0.3-0.4,0.4c-2,1.5-4.2,2.7-6.5,3.6c-0.1,0-0.1,0-0.2,0c-0.4,0-0.7,0.1-1,0.4
					c-0.1,0-0.1,0-0.2,0c-0.4,0-0.9,0.1-1.2,0.4c-0.1,0-0.1,0-0.1,0c-1.5,0.3-3,0.5-4.6,0.8c-0.2,0-0.3,0-0.5,0
					c-0.4,0-0.8-0.1-1.1,0.1c-0.4,0-0.8,0-1.1,0c-0.2,0-0.4,0-0.7,0c-0.2,0-0.5,0-0.7,0c-1.8,0-3.6-0.2-5.4-0.5
					c-0.2,0-0.4-0.1-0.6-0.1c-0.1-0.1-0.2-0.1-0.3-0.2c-0.6-0.2-1.2-0.4-1.8-0.6c-0.1-0.1-0.2-0.1-0.2-0.2c-0.1,0-0.2-0.1-0.4-0.1
					c-0.2-0.2-0.4-0.4-0.8-0.4c-0.2-0.1-0.4-0.2-0.6-0.3c-0.1-0.1-0.2-0.1-0.3-0.2c-0.1-0.2-0.2-0.3-0.4-0.3c-1.3-1-2.4-2.1-3.5-3.3
					c-0.2-0.3-0.4-0.6-0.6-1c-1.1-2.5-2.4-5-3.3-7.7c0-0.1,0-0.2-0.1-0.4c0-0.4-0.1-0.8-0.3-1.2c0-0.1,0-0.3-0.1-0.4
					c-0.3-2.3-0.5-4.5,0-6.8c0-0.2,0.1-0.3,0.1-0.5c0.2-0.2,0.2-0.4,0.2-0.7c0-0.1,0.1-0.3,0.1-0.4c0.8-1.8,1.8-3.5,2.9-5.2l0,0
					c0.3-0.2,0.4-0.4,0.5-0.7c0.3-0.2,0.6-0.4,0.7-0.8c0.1-0.1,0.2-0.2,0.2-0.3c0.1-0.1,0.1-0.2,0.2-0.2c0.1-0.1,0.1-0.1,0.2-0.2
					c0.3-0.2,0.6-0.4,0.7-0.7c0.6-0.4,1.1-0.9,1.5-1.5c0.6-0.3,1.1-0.8,1.6-1.3c0.1-0.1,0.2-0.1,0.2-0.2c0.1-0.1,0.2-0.1,0.2-0.2
					c0.3-0.1,0.5-0.2,0.6-0.5c0.2-0.1,0.4-0.2,0.5-0.4c0.8-0.5,1.6-1.1,2.3-1.7l0,0c0.2,0,0.3-0.1,0.4-0.2l0,0
					c0.3,0,0.5-0.1,0.7-0.4l0,0c0.3,0,0.6-0.2,0.8-0.4c0.1,0,0.1,0,0.2,0c0.4,0,0.7-0.1,0.9-0.4c1.1-0.3,2.3-0.6,3.4-0.9
					c0.2,0,0.3,0,0.5-0.1l0,0c1.5,0,3,0.1,4.5,0.4c1.5,0.7,3,1.5,4.3,2.5c1.6,1.5,2.9,3.2,4.2,5c1,1.5,1.9,3.1,3.2,4.4
					c0.4,0.7,0.9,1.4,1.5,1.9C298.2,232.4,298.7,233.3,299.3,234.2z"/>
				<path class="st5" d="M307.4,220.5c-0.1,0.1-0.2,0.3-0.3,0.4c-1.3,1.3-2.8,2.2-4.6,2.6c-0.4,0-0.8,0-1.1,0c-0.2,0-0.4,0-0.7,0
					c-0.9-0.1-1.7-0.5-2.5-0.8c-0.9-0.5-1.5-1.3-2.1-2.1c0-0.2-0.1-0.3-0.1-0.5c0-0.1-0.1-0.2-0.1-0.3c-0.3-1.1-0.8-2.2-0.1-3.3
					c0.3-0.4,0.4-0.8,0.5-1.2c0.1-0.1,0.1-0.3,0.2-0.4c0.1-0.1,0.1-0.2,0.2-0.3c0.1-0.1,0.2-0.3,0.3-0.4c0.1-0.1,0.1-0.2,0.2-0.3
					c0.4-0.4,0.8-0.7,1.2-1.1c1.4-0.8,2.9-1.4,4.6-1.3c0.2,0,0.3,0,0.5,0c0.1,0,0.3,0,0.4,0.1c0.3,0,0.6,0.1,0.8,0.1
					c1,0.5,1.9,1.1,2.7,1.9c0.3,0.6,0.6,1.2,0.9,1.8c0,0.1,0.1,0.2,0.1,0.3c0,0.2,0,0.4,0.1,0.6c0,1.2-0.2,2.3-0.7,3.4
					c-0.1,0.1-0.1,0.3-0.2,0.4C307.5,220.3,307.4,220.4,307.4,220.5z"/>
				<path class="st5" d="M259.7,255.6c0.3,1.5,0.8,3,0.5,4.5c-0.4,1.7-1.3,3.1-2.3,4.5c-0.5,0.3-0.9,0.7-1.2,1.1
					c-0.1,0.1-0.2,0.1-0.2,0.2l0,0c-0.3,0-0.5,0.2-0.7,0.4c-0.2,0.1-0.3,0.2-0.5,0.2c-0.1,0.1-0.2,0.1-0.3,0.2c-0.1,0-0.1,0-0.2,0
					c-0.1,0.1-0.2,0.1-0.3,0.2c-1.1,0.3-2.2,0.7-3.4,1c-1.3,0.2-2.6,0.4-3.8,0.6c-0.2,0-0.3,0-0.5,0c-1.4-0.2-2.8-0.4-4.2-0.7
					c-0.3-0.2-0.7-0.3-1-0.5c-0.1-0.2-0.3-0.2-0.4-0.2c-0.1-0.1-0.3-0.2-0.4-0.2l0,0c-0.1-0.3-0.4-0.4-0.7-0.5
					c-0.1-0.1-0.2-0.1-0.2-0.2c-0.1-0.1-0.2-0.1-0.2-0.2l0,0c-0.3-0.5-0.6-0.8-1.1-1.1c-0.1-0.2-0.2-0.4-0.4-0.5
					c-0.1-0.2-0.2-0.3-0.3-0.5c0-0.1-0.1-0.1-0.1-0.2c-0.1-0.1-0.1-0.2-0.2-0.3c0-0.3-0.2-0.5-0.4-0.7l0,0c-0.1-0.3-0.2-0.7-0.4-0.9
					l0,0c0-0.4-0.2-0.7-0.4-1c0-0.1,0-0.1,0-0.2c0-0.5-0.1-1-0.4-1.4c0-0.2,0-0.3-0.1-0.5c0.1-0.2,0.1-0.5-0.2-0.7
					c0-0.2,0-0.3,0-0.5c0-0.2,0-0.4,0-0.6c0-0.5,0-0.9,0.1-1.4c0-0.1,0-0.3,0-0.4c0-0.2,0-0.3,0-0.5c0.5-1.6,1.1-3.1,1.9-4.5
					c0.2-0.3,0.5-0.5,0.6-0.8c1.1-1.1,2.2-2.2,3.3-3.3c0.5-0.2,1-0.6,1.4-0.9c1.5-0.7,3-1.3,4.6-1.6c1.4,0,2.7,0.4,4,1
					c0.1,0.1,0.2,0.1,0.2,0.2c0.1,0,0.1,0.1,0.2,0.1c0.1,0.2,0.3,0.4,0.6,0.4c0.1,0.1,0.2,0.2,0.3,0.2l0,0c0.1,0.1,0.2,0.2,0.2,0.2
					l0,0c0.1,0.1,0.1,0.1,0.2,0.2l0,0c0.1,0.1,0.1,0.1,0.2,0.2l0,0c0.9,1.2,1.9,2.3,2.8,3.5c0.1,0.1,0.2,0.2,0.2,0.3
					c0.1,0.1,0.1,0.2,0.2,0.2c0.1,0.3,0.2,0.5,0.5,0.7C258,252.5,258.8,254,259.7,255.6z"/>
			</g>
			<g>
				<path class="st5" d="M366.3,264c0-0.1,0-0.2,0-0.3c-0.2-1.6-0.6-3.2-1.4-4.6c-0.2-0.3-0.5-0.6-0.7-0.9c-0.9-0.8-1.8-1.5-2.9-2.1
					c-0.1,0-0.1,0-0.2-0.1c-0.1,0-0.2-0.1-0.3-0.1l0,0c-0.1,0-0.2,0-0.3-0.1c-0.1,0-0.1,0-0.2-0.1c-0.1,0-0.2-0.1-0.3-0.1
					c-0.4-0.1-0.9-0.1-1.3-0.2c-0.1,0-0.2,0-0.3,0c-0.1,0-0.2,0-0.3,0c-0.1,0-0.2,0-0.3,0c-0.2,0-0.3,0-0.5,0c-0.1,0-0.2,0-0.3,0
					c-0.2,0-0.3,0-0.5,0c-2.6,0.4-4.8,1.7-6.8,3.4c-0.1,0.1-0.2,0.2-0.3,0.2c-0.3,0.9-1.1,1.5-1.5,2.2c-0.1,0.2-0.1,0.3-0.2,0.5
					c0,0.5-0.3,0.8-0.5,1.2c0,0.1-0.1,0.2-0.1,0.3c0,0.1,0,0.2-0.1,0.3l0,0c0.1,0.3,0,0.6-0.2,0.8c0,0.4,0,0.8,0,1.1
					c0,0.1,0,0.2,0,0.3l0,0c0,0.1,0,0.2,0,0.3l0,0c0,0.1,0,0.2,0,0.4c0,0,0.1,0.1,0.1,0.2c0,0.1,0,0.2,0,0.3l0,0
					c0.3,1.6,0.9,3,1.7,4.3c1.1,1.1,2.3,2,3.7,2.6c0.6,0.1,1.1,0.3,1.7,0.4c0.3,0,0.6,0.1,0.9,0.1c0.1,0,0.2,0,0.4,0
					c0.1,0,0.1-0.1,0.2,0c0.1,0,0.2,0,0.3,0h0c0.1,0,0.2,0,0.3,0c0.2,0,0.3,0,0.5,0c0.1,0,0.2,0,0.4,0c0,0,0.1-0.1,0.2-0.1
					c0.1-0.1,0.3-0.2,0.5-0.1c0.2-0.1,0.5-0.1,0.7-0.2c0.1,0,0.2,0,0.3,0c0.1-0.1,0.2-0.1,0.4-0.2c0.8-0.4,1.5-0.7,2.3-1.2
					c2.1-1.3,3.4-3.2,4.5-5.3l0,0c0-0.3,0.1-0.6,0.2-0.8c0-0.1,0-0.2,0.1-0.3c0-0.1,0-0.2,0.1-0.3c0,0,0,0,0,0
					c0.1-0.5,0.1-1,0.2-1.6l0,0C366.2,264.2,366.2,264.1,366.3,264z"/>
				<path class="st5" d="M370,277.8c-2.7-2.1-5.6-2.4-8.7-1c-0.1,0-0.2,0-0.3,0l0,0c-1.3,0.8-2.3,2-3.2,3.2c-0.2,0.5-0.4,1-0.5,1.5
					c-0.3,1.7,0.1,3.4,1,4.9c1,1.3,2.5,1.8,4,2.3c0.9,0,1.7,0,2.6,0.1c1.1-0.3,2.1-0.6,3.1-1.1c1.6-1.1,2.8-2.5,3.5-4.4
					c0.1-0.4,0.1-0.8,0.2-1.2C371.7,280.5,371.1,279,370,277.8z"/>
				<path class="st5" d="M353.7,313L353.7,313l0.1,0.1c2,1.2,4,1.3,6.2,0.3c0.5-0.4,0.9-0.7,1.4-1.1c0.6-1,1.1-2,1.1-3.3l0,0
					c0-0.1,0-0.2,0-0.4c0-0.1-0.1-0.2-0.1-0.4c-0.1-0.1-0.2-0.3-0.2-0.4c-0.3-0.4-0.5-0.7-0.8-1.1c-0.1-0.1-0.2-0.2-0.3-0.3
					c-0.2,0-0.3-0.1-0.4-0.3c-0.2-0.1-0.4-0.2-0.6-0.3c-3-0.9-5.4-0.3-7.2,2.4c-0.1,0.6-0.3,1.2-0.4,1.7c0,0.2,0,0.4,0.1,0.5
					c0,0.1,0,0.2,0,0.3c0.1,0.1,0.1,0.3,0.2,0.4c0.1,0.1,0.2,0.3,0.1,0.5c0.2,0.3,0.4,0.6,0.6,0.9
					C353.5,312.7,353.6,312.8,353.7,313z"/>
				<path class="st5" d="M352.4,285.2c-0.4-2.6-1.1-5-2.5-7.3c-1.1-1.8-2.8-3.2-4.3-4.5c-1.3-0.8-2.7-1.5-4.1-2
					c-0.4,0-0.8-0.1-1.1-0.3c-0.2,0-0.4-0.1-0.6-0.1c-2.5,0-5,0.2-7.4,0.7c0,0-0.1,0.1-0.2,0.1c-0.3,0.2-0.7,0.3-1,0.3
					c0,0-0.1,0.1-0.1,0.1c-0.4,0.3-0.8,0.4-1.2,0.4c0,0-0.1,0.1-0.1,0.1c-1.4,0.6-2.8,1.3-4.2,1.9c-0.1,0.1-0.3,0.2-0.4,0.3
					c-0.3,0.3-0.6,0.5-1,0.5c-0.3,0.2-0.6,0.4-0.9,0.6c-0.2,0.1-0.4,0.2-0.5,0.4c-0.2,0.1-0.4,0.2-0.6,0.4c-1.5,1-2.8,2.2-4.2,3.5
					c-0.1,0.1-0.3,0.3-0.4,0.4c-0.1,0.1-0.1,0.2-0.2,0.3c-0.4,0.5-0.8,1-1.1,1.5c0,0.1-0.1,0.2-0.1,0.3c-0.1,0.1-0.2,0.2-0.2,0.3
					c0,0.3-0.1,0.6-0.4,0.8c-0.1,0.2-0.2,0.4-0.4,0.6c0,0.1-0.1,0.2-0.1,0.3c0,0.2,0,0.4-0.2,0.5c-0.5,1.5-0.8,3.1-1.1,4.7
					c0,0.4,0,0.8,0,1.2c0.5,2.7,0.8,5.5,1.6,8.2c0.1,0.1,0.1,0.2,0.2,0.3c0.3,0.3,0.4,0.8,0.4,1.2c0.1,0.1,0.1,0.2,0.2,0.4
					c1.1,2,2.1,4,3.8,5.6c0.1,0.1,0.2,0.2,0.3,0.3c0.3,0,0.4,0.2,0.5,0.4c0.1,0.1,0.2,0.2,0.3,0.3c1.7,1,3.5,1.9,5.3,2.7l0,0
					c0.3,0,0.6,0.1,0.8,0.3c0.4,0,0.7,0,1.1,0.3c0.1,0,0.2,0.1,0.4,0.1c0.1,0,0.2,0,0.3,0.1c0.1,0,0.2,0,0.3,0.1
					c0.4-0.1,0.7,0,1,0.2c0.7,0,1.4,0.1,2.1,0.4c0.7-0.1,1.4,0,2,0.2c0.1,0,0.2,0,0.3,0c0.1,0,0.2,0,0.3,0c0.3-0.1,0.5-0.1,0.8,0
					c0.2-0.1,0.5-0.1,0.7,0.1c1-0.1,1.9-0.1,2.9,0.1l0,0c0.2-0.1,0.3-0.1,0.5,0l0,0c0.3-0.2,0.5-0.2,0.8-0.1l0,0
					c0.3-0.2,0.6-0.2,0.9-0.1c0,0,0.1-0.1,0.2-0.1c0.3-0.2,0.6-0.3,1-0.2c1.1-0.4,2.2-0.8,3.3-1.2c0.1-0.1,0.3-0.2,0.5-0.2l0,0
					c1.3-0.8,2.4-1.8,3.4-2.9c0.9-1.4,1.6-2.9,2.1-4.5c0.4-2.1,0.6-4.3,0.6-6.5c0-1.8-0.2-3.6,0.2-5.4c0-0.8-0.1-1.6,0.1-2.4
					C352.6,287.3,352.5,286.2,352.4,285.2z"/>
				<path class="st5" d="M366.9,291.9c-0.2-0.1-0.3-0.1-0.5-0.2c-1.8-0.4-3.6-0.2-5.3,0.5c-0.3,0.2-0.6,0.4-0.9,0.6
					c-0.2,0.1-0.4,0.3-0.5,0.4c-0.6,0.6-1.1,1.4-1.6,2.1c-0.4,0.9-0.5,1.9-0.5,2.9c0,0.2,0.1,0.3,0.1,0.5c0,0.1,0,0.2,0,0.3
					c0.4,1.1,0.6,2.2,1.8,2.8c0.4,0.1,0.8,0.4,1.1,0.7c0.1,0.1,0.3,0.1,0.4,0.2c0.1,0,0.2,0.1,0.3,0.1c0.2,0.1,0.3,0.1,0.5,0.2
					c0.1,0,0.2,0.1,0.3,0.1c0.5,0.1,1.1,0.1,1.6,0.2c1.6-0.2,3.2-0.5,4.5-1.5c0.1-0.1,0.2-0.2,0.4-0.3c0.1-0.1,0.2-0.2,0.3-0.3
					c0.2-0.2,0.4-0.4,0.6-0.6c0.5-1,1-2,1.2-3.1c-0.1-0.7-0.2-1.4-0.3-2c0-0.1,0-0.2,0-0.3c-0.1-0.2-0.2-0.4-0.3-0.5
					c-0.7-1-1.5-1.8-2.5-2.4c-0.1-0.1-0.3-0.1-0.4-0.2C367.1,292,367,291.9,366.9,291.9z"/>
				<path class="st5" d="M307.7,290c-0.6-1.4-1.1-2.9-2.2-4c-1.3-1.2-2.8-1.9-4.5-2.4c-0.6,0-1.1-0.1-1.6-0.2c-0.1,0-0.2,0-0.3,0
					l0,0c-0.3,0.1-0.5,0.1-0.8,0c-0.2,0-0.3,0-0.5,0.1c-0.1,0-0.2,0-0.3,0c0,0-0.1,0.1-0.2,0.1c-0.1,0-0.2,0-0.4,0.1
					c-1.1,0.4-2.2,0.7-3.3,1.1c-1.2,0.6-2.3,1.1-3.5,1.7c-0.1,0.1-0.3,0.2-0.4,0.3c-1,1-2,1.9-3.1,2.9c-0.2,0.3-0.4,0.6-0.6,0.9
					c0,0.2-0.1,0.3-0.2,0.5c-0.1,0.1-0.2,0.3-0.2,0.4l0,0c0,0.3-0.1,0.6-0.2,0.8c0,0.1-0.1,0.2-0.1,0.3c0,0.1-0.1,0.2-0.1,0.3l0,0
					c0,0.5,0,1.1-0.2,1.5c0.1,0.2,0.1,0.5-0.1,0.7c0,0.2,0,0.4,0,0.5c0,0.1,0,0.2,0,0.3c0,0.1,0,0.2,0,0.3c0.1,0.3,0.2,0.5,0.1,0.8
					l0,0c0.2,0.3,0.2,0.6,0.2,1l0,0c0.2,0.3,0.3,0.7,0.2,1c0,0,0.1,0.1,0.1,0.1c0.3,0.4,0.4,0.9,0.5,1.4c0.1,0.1,0.1,0.3,0.2,0.4
					c0.2,0.2,0.3,0.4,0.3,0.6c0.1,0.1,0.2,0.3,0.2,0.4c0.1,0.2,0.2,0.4,0.4,0.5c0.3,0.4,0.6,0.7,0.8,1.1c0.1,0.1,0.2,0.2,0.3,0.3
					c0.1,0.1,0.2,0.2,0.3,0.4c1.3,1,2.6,1.9,4.1,2.6c0.3,0.1,0.7,0.1,0.9,0.4c1.5,0.3,3,0.6,4.6,0.9c0.5-0.1,1.1-0.1,1.6,0
					c1.6-0.2,3.2-0.6,4.7-1.3c1.2-0.8,2-1.9,2.7-3.1c0-0.1,0.1-0.2,0.1-0.3c0-0.1,0.1-0.1,0.1-0.2c0-0.3,0.1-0.5,0.3-0.7
					c0-0.1,0.1-0.2,0.1-0.3l0,0c0-0.1,0-0.2,0.1-0.3l0,0c0-0.1,0-0.2,0.1-0.3l0,0c0-0.1,0-0.2,0-0.3l0,0c0.1-1.5,0.2-3,0.4-4.4
					c0-0.1,0-0.2,0-0.4c0-0.1,0-0.2,0-0.3c-0.1-0.3-0.1-0.6,0-0.8C308.1,293.5,307.9,291.8,307.7,290z"/>
			</g>
		</g>
	</g>
</g>
</svg>
